<svg width="48" height="48" viewBox="0 0 48 48" fill="none" xmlns="http://www.w3.org/2000/svg">
<rect width="48" height="48" rx="8" fill="#F134F7"/>
<g clip-path="url(#clip0_2430_31082)">
<mask id="mask0_2430_31082" style="mask-type:alpha" maskUnits="userSpaceOnUse" x="8" y="8" width="32" height="32">
<path d="M24.0002 17.3334C24.7365 17.3334 25.3335 16.7365 25.3335 16.0001C25.3335 15.2637 24.7365 14.6667 24.0002 14.6667C23.2638 14.6667 22.6668 15.2637 22.6668 16.0001C22.6668 16.7365 23.2638 17.3334 24.0002 17.3334Z" fill="#291D18"/>
<path d="M22.6668 20.6667C22.6668 21.0349 22.3684 21.3334 22.0002 21.3334C21.632 21.3334 21.3335 21.0349 21.3335 20.6667C21.3335 20.2986 21.632 20.0001 22.0002 20.0001C22.3684 20.0001 22.6668 20.2986 22.6668 20.6667Z" fill="#291D18"/>
<path d="M22.0002 24.0001C22.3684 24.0001 22.6668 23.7016 22.6668 23.3334C22.6668 22.9652 22.3684 22.6667 22.0002 22.6667C21.632 22.6667 21.3335 22.9652 21.3335 23.3334C21.3335 23.7016 21.632 24.0001 22.0002 24.0001Z" fill="#291D18"/>
<path d="M22.6668 26.0001C22.6668 26.3683 22.3684 26.6667 22.0002 26.6667C21.632 26.6667 21.3335 26.3683 21.3335 26.0001C21.3335 25.6319 21.632 25.3334 22.0002 25.3334C22.3684 25.3334 22.6668 25.6319 22.6668 26.0001Z" fill="#291D18"/>
<path d="M26.0002 21.3334C26.3684 21.3334 26.6668 21.0349 26.6668 20.6667C26.6668 20.2986 26.3684 20.0001 26.0002 20.0001C25.632 20.0001 25.3335 20.2986 25.3335 20.6667C25.3335 21.0349 25.632 21.3334 26.0002 21.3334Z" fill="#291D18"/>
<path d="M26.6668 23.3334C26.6668 23.7016 26.3684 24.0001 26.0002 24.0001C25.632 24.0001 25.3335 23.7016 25.3335 23.3334C25.3335 22.9652 25.632 22.6667 26.0002 22.6667C26.3684 22.6667 26.6668 22.9652 26.6668 23.3334Z" fill="#291D18"/>
<path d="M26.0002 26.6667C26.3684 26.6667 26.6668 26.3683 26.6668 26.0001C26.6668 25.6319 26.3684 25.3334 26.0002 25.3334C25.632 25.3334 25.3335 25.6319 25.3335 26.0001C25.3335 26.3683 25.632 26.6667 26.0002 26.6667Z" fill="#291D18"/>
<path d="M17.1882 14.4319C17.3126 12.3176 19.0634 10.6667 21.1813 10.6667H26.8192C28.9371 10.6667 30.6879 12.3176 30.8123 14.4319L31.8947 32.8331C31.9872 34.4056 31.1164 36.0437 29.4028 36.5561C28.1336 36.9357 26.2646 37.3334 24.0002 37.3334C21.7359 37.3334 19.8669 36.9357 18.5977 36.5561C16.884 36.0437 16.0133 34.4056 16.1058 32.8331L17.1882 14.4319ZM21.1813 13.3334C20.4754 13.3334 19.8917 13.8837 19.8503 14.5885L19.0298 28.5359C19.3898 28.6436 19.8174 28.7579 20.2956 28.8666C21.4592 29.131 22.799 29.3334 24.0001 29.3334C25.2012 29.3334 26.541 29.131 27.7046 28.8666C28.1829 28.7579 28.6106 28.6435 28.9706 28.5358L28.1502 14.5885C28.1087 13.8837 27.5251 13.3334 26.8192 13.3334H21.1813ZM18.7679 32.9897C18.7351 33.5469 19.0313 33.9024 19.3617 34.0012C20.437 34.3228 22.0455 34.6667 24.0002 34.6667C25.955 34.6667 27.5635 34.3228 28.6388 34.0012C28.9692 33.9024 29.2654 33.5469 29.2326 32.9897L29.1309 31.2611C28.8626 31.3325 28.5825 31.4017 28.2956 31.4669C27.0147 31.7581 25.4657 32.0001 24.0001 32.0001C22.5345 32.0001 20.9855 31.7581 19.7046 31.4669C19.4178 31.4018 19.1378 31.3326 18.8695 31.2612L18.7679 32.9897Z" fill="#291D18"/>
</mask>
<g mask="url(#mask0_2430_31082)">
<rect x="8" y="8" width="32" height="32" fill="white"/>
</g>
</g>
<defs>
<clipPath id="clip0_2430_31082">
<rect width="32" height="32" fill="white" transform="translate(8 8)"/>
</clipPath>
</defs>
</svg>
