<svg width="48" height="48" viewBox="0 0 48 48" fill="none" xmlns="http://www.w3.org/2000/svg">
<rect width="48" height="48" rx="8" fill="#34AFF7"/>
<g clip-path="url(#clip0_2430_31079)">
<mask id="mask0_2430_31079" style="mask-type:alpha" maskUnits="userSpaceOnUse" x="8" y="8" width="32" height="32">
<path d="M23.6667 14.6667C21.6416 14.6667 20 16.3083 20 18.3333C20 20.3584 21.6416 22 23.6667 22C25.6917 22 27.3333 20.3584 27.3333 18.3333C27.3333 16.3083 25.6917 14.6667 23.6667 14.6667ZM23.6667 16.6667C24.5871 16.6667 25.3333 17.4129 25.3333 18.3333C25.3333 19.2538 24.5871 20 23.6667 20C22.7462 20 22 19.2538 22 18.3333C22 17.4129 22.7462 16.6667 23.6667 16.6667Z" fill="#291D18"/>
<path d="M14.6667 23.6667C14.6667 21.6416 16.3083 20 18.3333 20C20.3584 20 22 21.6416 22 23.6667C22 25.6917 20.3584 27.3333 18.3333 27.3333C16.3083 27.3333 14.6667 25.6917 14.6667 23.6667ZM20 23.6667C20 22.7462 19.2538 22 18.3333 22C17.4129 22 16.6667 22.7462 16.6667 23.6667C16.6667 24.5871 17.4129 25.3333 18.3333 25.3333C19.2538 25.3333 20 24.5871 20 23.6667Z" fill="#291D18"/>
<path d="M23.6667 25.3333C21.6416 25.3333 20 26.975 20 29C20 31.025 21.6416 32.6667 23.6667 32.6667C25.6917 32.6667 27.3333 31.025 27.3333 29C27.3333 26.975 25.6917 25.3333 23.6667 25.3333ZM23.6667 27.3333C24.5871 27.3333 25.3333 28.0795 25.3333 29C25.3333 29.9205 24.5871 30.6667 23.6667 30.6667C22.7462 30.6667 22 29.9205 22 29C22 28.0795 22.7462 27.3333 23.6667 27.3333Z" fill="#291D18"/>
<path d="M25.3333 23.6667C25.3333 21.6416 26.975 20 29 20C31.025 20 32.6667 21.6416 32.6667 23.6667C32.6667 25.6917 31.025 27.3333 29 27.3333C26.975 27.3333 25.3333 25.6917 25.3333 23.6667ZM30.6667 23.6667C30.6667 22.7462 29.9205 22 29 22C28.0795 22 27.3333 22.7462 27.3333 23.6667C27.3333 24.5871 28.0795 25.3333 29 25.3333C29.9205 25.3333 30.6667 24.5871 30.6667 23.6667Z" fill="#291D18"/>
<path d="M23.6667 12C17.2233 12 12 17.2233 12 23.6667C12 30.11 17.2233 35.3333 23.6667 35.3333C27.1061 35.3333 30.1979 33.845 32.3332 31.4772C32.7431 31.2132 33.2345 31.1209 33.7051 31.2382C34.6657 31.4777 35.2552 32.5165 34.9911 33.5756C34.8363 34.1965 34.4184 34.6929 33.8755 34.9338C33.3707 35.1579 33.1431 35.7487 33.3671 36.2535C33.5912 36.7583 34.182 36.9859 34.6868 36.7619C35.7925 36.2711 36.6276 35.2792 36.9317 34.0594C37.4578 31.9495 36.2435 29.8099 34.189 29.2976C34.0989 29.2752 34.0085 29.2562 33.9181 29.2407C34.8206 27.5846 35.3333 25.6855 35.3333 23.6667C35.3333 17.2233 30.11 12 23.6667 12ZM30.9844 29.9832C30.7465 30.166 30.5271 30.378 30.3314 30.6167C30.2936 30.6628 30.2607 30.7113 30.2324 30.7615C28.5084 32.3577 26.2015 33.3333 23.6667 33.3333C18.3279 33.3333 14 29.0054 14 23.6667C14 18.3279 18.3279 14 23.6667 14C29.0054 14 33.3333 18.3279 33.3333 23.6667C33.3333 26.0812 32.448 28.2891 30.9844 29.9832Z" fill="#291D18"/>
</mask>
<g mask="url(#mask0_2430_31079)">
<rect x="8" y="8" width="32" height="32" fill="white"/>
</g>
</g>
<defs>
<clipPath id="clip0_2430_31079">
<rect width="32" height="32" fill="white" transform="translate(8 8)"/>
</clipPath>
</defs>
</svg>
