<svg width="48" height="48" viewBox="0 0 48 48" fill="none" xmlns="http://www.w3.org/2000/svg">
<path d="M35.8257 27.3991C37.6042 27.3991 39.046 25.9586 39.046 24.1812C39.046 22.4043 37.6042 20.9635 35.8257 20.9635C34.0469 20.9635 32.6053 22.4043 32.6053 24.1812C32.6053 25.9586 34.0469 27.3991 35.8257 27.3991Z" fill="white"/>
<path d="M35.823 32.4286C40.3317 32.4268 44.0009 28.6837 43.9998 24.178C43.999 19.5773 40.3317 16.0034 35.823 16C31.3195 15.9968 29.0184 19.3091 28.4498 20.6461C28.4551 18.639 26.4753 16.27 24.1595 16.2675H16.6982V32.3485L23.6547 32.3499C26.4593 32.3499 28.4551 29.9216 28.4585 27.8394C29.0987 29.1499 31.3195 32.4302 35.823 32.4286ZM31.7291 24.1812C31.7291 21.9207 33.5631 20.0881 35.8257 20.0881C38.0882 20.0881 39.9225 21.9207 39.9225 24.1812C39.9225 26.442 38.0882 28.2746 35.8257 28.2746C33.5631 28.2746 31.7291 26.442 31.7291 24.1812ZM26.0249 24.1812C26.5318 24.1171 27.3768 23.538 27.6744 23.1683C27.5698 23.6267 27.5618 24.9532 27.6841 25.4115C27.3443 24.8889 26.5399 24.2456 26.0249 24.1812ZM23.0798 19.8478C23.7236 19.8478 24.2305 20.4828 24.2305 21.2065C24.2305 21.9302 23.7236 22.5656 23.0798 22.5656H20.8671V19.8478H23.0798ZM23.0717 25.8857C23.7154 25.8857 24.2224 26.5211 24.2224 27.2445C24.2224 27.9683 23.7154 28.6033 23.0717 28.6033H20.859V25.8857H23.0717Z" fill="white"/>
<path d="M15.746 32.3491H11.3631V26.0981H8.51796V32.3491H4V16.238H8.51796V22.2312H11.3631V16.238H15.746V32.3491Z" fill="white"/>
<path fill-rule="evenodd" clip-rule="evenodd" d="M42.9998 17.3062H42.8032V17.8022H42.6321V16.658H43.062C43.3288 16.658 43.4609 16.7578 43.4609 16.9834C43.4609 17.1882 43.334 17.2773 43.1682 17.2983L43.4895 17.8022H43.2978L42.9998 17.3062ZM42.8032 16.805V17.1592H43.0076C43.1527 17.1592 43.2822 17.1488 43.2822 16.9729C43.2822 16.8311 43.1552 16.805 43.0361 16.805H42.8032Z" fill="white"/>
<path fill-rule="evenodd" clip-rule="evenodd" d="M43.9998 17.2275C43.9998 17.8022 43.5439 18.2222 43.0104 18.2222C42.4714 18.2222 42.0156 17.8022 42.0156 17.2275C42.0156 16.658 42.4714 16.238 43.0104 16.238C43.5439 16.238 43.9998 16.658 43.9998 17.2275ZM43.0104 16.4034C42.5621 16.4034 42.2125 16.7578 42.2125 17.2275C42.2125 17.7051 42.5621 18.0568 43.0104 18.0568C43.4532 18.0568 43.8029 17.7051 43.8029 17.2275C43.8029 16.7578 43.4532 16.4034 43.0104 16.4034Z" fill="white"/>
</svg>
