<svg width="24" height="24" viewBox="0 0 24 24" fill="none" xmlns="http://www.w3.org/2000/svg">
<g clip-path="url(#clip0_3414_120635)">
<mask id="mask0_3414_120635" style="mask-type:alpha" maskUnits="userSpaceOnUse" x="0" y="0" width="24" height="24">
<path d="M12.0002 6.70001C12.7182 6.70001 13.3002 7.28204 13.3002 8.00001C13.3002 8.71798 12.7182 9.30101 12.0002 9.30101C11.2822 9.30101 10.7002 8.71898 10.7002 8.00101C10.7002 7.28304 11.2822 6.70001 12.0002 6.70001Z" fill="#291D18"/>
<path d="M10 11C9.44772 11 9 11.4477 9 12C9 12.5523 9.44772 13 10 13H11V15H10C9.44772 15 9 15.4477 9 16C9 16.5523 9.44772 17 10 17H14C14.5523 17 15 16.5523 15 16C15 15.4477 14.5523 15 14 15H13V12C13 11.4477 12.5523 11 12 11H10Z" fill="#291D18"/>
<path d="M2 12C2 6.47715 6.47715 2 12 2C17.5228 2 22 6.47715 22 12C22 17.5228 17.5228 22 12 22C6.47715 22 2 17.5228 2 12ZM12 4C7.58172 4 4 7.58172 4 12C4 16.4183 7.58172 20 12 20C16.4183 20 20 16.4183 20 12C20 7.58172 16.4183 4 12 4Z" fill="#291D18"/>
</mask>
<g mask="url(#mask0_3414_120635)">
<rect width="24" height="24" fill="#1A4480"/>
</g>
</g>
<defs>
<clipPath id="clip0_3414_120635">
<rect width="24" height="24" fill="white"/>
</clipPath>
</defs>
</svg>
