<svg width="48" height="48" viewBox="0 0 48 48" fill="none" xmlns="http://www.w3.org/2000/svg">
<g clip-path="url(#clip0_2430_31071)">
<rect width="48" height="48" fill="#2C2C2C"/>
<rect width="48" height="48" fill="white" fill-opacity="0.08"/>
<path fill-rule="evenodd" clip-rule="evenodd" d="M11 16C11 13.7909 12.7909 12 15 12H31C33.2091 12 35 13.7909 35 16V32C35 34.2091 33.2091 36 31 36H15C12.7909 36 11 34.2091 11 32V16ZM15 14.6667C14.2636 14.6667 13.6667 15.2636 13.6667 16V17.3333H15.7812L18.4479 14.6667H15ZM23.7812 17.3333H19.5525L22.2192 14.6667H26.4479L23.7812 17.3333ZM27.5525 17.3333H32.3333V16C32.3333 15.2636 31.7364 14.6667 31 14.6667H30.2192L27.5525 17.3333ZM32.3333 20H13.6667V32C13.6667 32.7364 14.2636 33.3333 15 33.3333H31C31.7364 33.3333 32.3333 32.7364 32.3333 32V20ZM27.4755 26.2991L19.9293 23.065C19.4894 22.8765 19 23.1992 19 23.6778V29.6558C19 30.1344 19.4894 30.457 19.9293 30.2685L27.4755 27.0344C27.7987 26.8959 27.7987 26.4377 27.4755 26.2991Z" fill="white" fill-opacity="0.32"/>
</g>
<defs>
<clipPath id="clip0_2430_31071">
<rect width="48" height="48" rx="8" fill="white"/>
</clipPath>
</defs>
</svg>
