<svg width="48" height="48" viewBox="0 0 48 48" fill="none" xmlns="http://www.w3.org/2000/svg">
<rect width="48" height="48" rx="8" fill="#FF5252"/>
<g clip-path="url(#clip0_2430_31076)">
<mask id="mask0_2430_31076" style="mask-type:alpha" maskUnits="userSpaceOnUse" x="8" y="8" width="32" height="32">
<path d="M10.6665 23.6667C10.6665 16.487 16.4868 10.6667 23.6665 10.6667C30.8462 10.6667 36.6665 16.487 36.6665 23.6667C36.6665 30.8465 30.8462 36.6667 23.6665 36.6667C16.4868 36.6667 10.6665 30.8465 10.6665 23.6667ZM34.1606 24.6667C31.7128 24.6667 29.423 25.3943 27.5021 26.6515L31.5058 31.3833C33.2394 29.6223 34.3841 27.2799 34.6209 24.6753C34.4679 24.6696 34.3144 24.6667 34.1606 24.6667ZM26.2016 25.1147C28.4789 23.567 31.2215 22.6667 34.1606 22.6667C34.3148 22.6667 34.4687 22.6692 34.6223 22.6742C34.4462 20.7054 33.7515 18.886 32.6756 17.3536L25.0758 23.7842L26.2016 25.1147ZM23.5491 25.0761L15.95 31.5061C17.1405 32.6781 18.5967 33.5809 20.2201 34.116C20.8357 31.0532 22.42 28.3577 24.6293 26.3527L23.5491 25.0761ZM23.7839 22.2574L31.383 15.8274C30.2229 14.6854 28.8105 13.7989 27.237 13.2592C26.6277 16.3529 25.0308 19.0748 22.7989 21.0933L23.7839 22.2574ZM21.2243 22.3287C18.9511 23.8679 16.2161 24.7628 13.2857 24.7628C13.0965 24.7628 12.9077 24.7591 12.7193 24.7517C12.9086 26.685 13.5984 28.4715 14.6574 29.9799L22.2572 23.5493L21.2243 22.3287ZM21.5062 19.5655C23.4205 17.8157 24.7843 15.4601 25.2914 12.7859C24.7612 12.7074 24.2186 12.6667 23.6665 12.6667C21.3174 12.6667 19.1403 13.4031 17.3533 14.6576L21.5062 19.5655ZM15.8272 15.9502C14.0734 17.7317 12.9223 20.1081 12.7042 22.7492C12.8974 22.7583 13.0913 22.7628 13.2857 22.7628C15.7248 22.7628 18.007 22.0404 19.9236 20.7915L15.8272 15.9502ZM25.9221 27.8806C24.0358 29.6117 22.6869 31.9321 22.1699 34.5658C22.6593 34.6324 23.1589 34.6667 23.6665 34.6667C26.0156 34.6667 28.1928 33.9304 29.9797 32.6759L25.9221 27.8806Z" fill="#291D18"/>
</mask>
<g mask="url(#mask0_2430_31076)">
<rect x="8" y="8" width="32" height="32" fill="white"/>
</g>
</g>
<defs>
<clipPath id="clip0_2430_31076">
<rect width="32" height="32" fill="white" transform="translate(8 8)"/>
</clipPath>
</defs>
</svg>
