<svg width="48" height="48" viewBox="0 0 48 48" fill="none" xmlns="http://www.w3.org/2000/svg">
<g clip-path="url(#clip0_2430_31067)">
<g clip-path="url(#clip1_2430_31067)">
<rect width="48" height="48" fill="black"/>
<path fill-rule="evenodd" clip-rule="evenodd" d="M15.4764 15.6003L-4 15.6V21.1997L15.3664 21.2C15.0673 20.4394 14.8991 19.5627 14.8991 18.5445C14.8991 17.472 15.1028 16.4864 15.4764 15.6003Z" fill="#FED71F"/>
<path fill-rule="evenodd" clip-rule="evenodd" d="M-4 21.2007V26.8L25.4591 26.7996C21.9412 25.783 17.201 24.903 15.7149 21.2L-4 21.2007Z" fill="#FF0A5A"/>
<path fill-rule="evenodd" clip-rule="evenodd" d="M24.7591 26.8001L-4 26.8V32.4L13.3845 32.412H13.8C13.7053 32.2438 13.571 32.044 13.4867 31.8693L18.35 29.087C19.2452 31.1789 21.0683 32.75 23.9081 32.75C23.9913 32.75 24.0721 32.7468 24.154 32.7452C24.2109 32.7462 24.2661 32.7498 24.3237 32.75C27.625 32.762 29.025 31.5693 29.025 29.612C29.025 28.0759 28.0014 27.4459 25.7 26.812" fill="#CC0243"/>
<path fill-rule="evenodd" clip-rule="evenodd" d="M13.7566 32.4L-4 32.4V38L24.2467 37.9999L24.2426 37.9938C19.2354 37.9709 15.5612 35.84 13.7566 32.4Z" fill="#F20D3A"/>
<path fill-rule="evenodd" clip-rule="evenodd" d="M15.1264 15.6C16.4188 12.2221 19.75 10.525 23.768 10H-4V15.6H15.1264Z" fill="#FF4B00"/>
<path fill-rule="evenodd" clip-rule="evenodd" d="M20.3787 18.0382C20.3787 16.1218 22.1908 15.2167 24.2695 15.2167C26.4546 15.2167 28.3201 16.175 29.2794 18.251L34.1295 15.5361C32.2641 12.0227 28.6399 10 24.2695 10C18.8331 10 14.5159 13.1407 14.5159 18.1445C14.5159 27.6731 28.8531 25.0115 28.8531 29.7491C28.8531 31.8785 26.8811 32.73 24.3228 32.73C21.3914 32.73 19.2595 31.2928 18.4067 28.8974L13.45 31.7719C15.1555 35.6046 18.993 38 24.3228 38C30.0789 38 34.7158 35.1255 34.7158 29.8024C34.7158 19.9544 20.3787 22.8822 20.3787 18.0382Z" fill="white"/>
</g>
</g>
<defs>
<clipPath id="clip0_2430_31067">
<rect width="48" height="48" rx="8" fill="white"/>
</clipPath>
<clipPath id="clip1_2430_31067">
<rect width="48" height="48" fill="white"/>
</clipPath>
</defs>
</svg>
