<svg width="48" height="48" viewBox="0 0 48 48" fill="none" xmlns="http://www.w3.org/2000/svg">
<rect width="48" height="48" rx="8" fill="#2EDB4B"/>
<g clip-path="url(#clip0_2430_31073)">
<mask id="mask0_2430_31073" style="mask-type:alpha" maskUnits="userSpaceOnUse" x="8" y="8" width="32" height="32">
<path d="M16 33.3336C16.7363 33.3336 17.3332 32.7366 17.3332 32.0002C17.3332 31.2638 16.7363 30.6669 16 30.6669C15.2637 30.6669 14.6668 31.2638 14.6668 32.0002C14.6668 32.7366 15.2637 33.3336 16 33.3336Z" fill="#291D18"/>
<path d="M17.5574 12.7398L21.5083 18.6669H13.9998C12.1589 18.6669 10.6665 20.1593 10.6665 22.0002V34.0002C10.6665 35.8412 12.1589 37.3336 13.9998 37.3336H33.9998C35.8408 37.3336 37.3332 35.8412 37.3332 34.0002V22.0002C37.3332 20.1593 35.8408 18.6669 33.9998 18.6669H27.8253L31.7762 12.7398L31.855 12.6055C32.1587 12.011 31.9753 11.2701 31.4065 10.8908C30.7938 10.4824 29.9661 10.6479 29.5577 11.2606L24.6668 18.5977L19.7759 11.2606C19.3675 10.6479 18.5398 10.4824 17.9271 10.8908C17.3582 11.2701 17.1749 12.011 17.4786 12.6055L17.5574 12.7398ZM14.0001 21.3336H23.9812C23.9942 21.3337 24.0071 21.3337 24.02 21.3336H25.3135C25.3265 21.3337 25.3394 21.3337 25.3524 21.3336H34.0001C34.3683 21.3336 34.6668 21.632 34.6668 22.0002V34.0002C34.6668 34.3684 34.3683 34.6669 34.0001 34.6669H14.0001C13.6319 34.6669 13.3335 34.3684 13.3335 34.0002V22.0002C13.3335 21.632 13.6319 21.3336 14.0001 21.3336Z" fill="#291D18"/>
</mask>
<g mask="url(#mask0_2430_31073)">
<rect x="8" y="8" width="32" height="32" fill="white"/>
</g>
</g>
<defs>
<clipPath id="clip0_2430_31073">
<rect width="32" height="32" fill="white" transform="translate(8 8)"/>
</clipPath>
</defs>
</svg>
